<svg xmlns="http://www.w3.org/2000/svg" viewBox="0 0 29 28">
<symbol id="floppy">
<path fill="currentColor" d="M.5 0h2.15v2.15H.5zm0 2.15h2.15V4.3H.5zm0 2.16h2.15v2.15H.5zm0 2.15h2.15v2.15H.5zm0 2.16h2.15v2.15H.5zm0 2.15h2.15v2.15H.5zm0 2.15h2.15v2.15H.5zm0 2.16h2.15v2.15H.5zm0 2.15h2.15v2.15H.5zm0 2.15h2.15v2.15H.5zm0 2.16h2.15v2.15H.5zm0 2.15h2.15v2.15H.5zm0 2.16h2.15V28H.5zM24.2 0v2.15h-2.16V0zm-2.16 0v2.15h-2.15V0zm-2.16 0v2.15h-2.15V0zm-2.15 0v2.15h-2.15V0zm-2.15 0v2.15h-2.15V0zm-2.16 0v2.15h-2.15V0zm-2.15 0v2.15H9.12V0zM9.12 0v2.15H6.97V0zM6.96 0v2.15H4.81V0zM4.8 0v2.15H2.67V0zm21.55 2.16V4.3H24.2V2.16zM6.96 4.3v2.16H4.8V4.3zm0-2.15V4.3H4.81V2.15zm0 4.31v2.15H4.81V6.46zM22.04 4.3v2.16h-2.15V4.3zm0-2.15V4.3H19.9V2.15zm0 4.31v2.15H19.9V6.46zM17.73 4.3v2.16h-2.15V4.3zm0-2.15V4.3h-2.15V2.15zm0 4.31v2.15h-2.15V6.46zm4.3 2.16v2.15h-2.15V8.62zm-2.15-.01v2.15h-2.15V8.61zm-2.15 0v2.15h-2.15V8.61zm-2.16.01v2.15h-2.15V8.62zm-2.15-.01v2.15h-2.15V8.61zm-2.16.01v2.15H9.11V8.62zm-2.15 0v2.15H6.96V8.62zm-2.15-.01v2.15H4.8V8.61zm17.23 6.46v2.15h-2.15v-2.15zm-2.15.01v2.15h-2.15v-2.15zm-2.16-.01v2.15h-2.15v-2.15zm-2.15.01v2.15h-2.15v-2.15zm-2.16 0v2.15h-2.15v-2.15zm-2.15-.01v2.15h-2.15v-2.15zm-2.15.01v2.15H9.12v-2.15zm-2.16 0v2.15H6.96v-2.15zm-2.15 0v2.15H4.8v-2.15zm17.24 2.15v2.15h-2.16v-2.15zm-17.24 0v2.15H4.81v-2.15zm17.24 2.15v2.15h-2.15v-2.15zm-17.23 0v2.15H4.82v-2.15zm17.23 2.16v2.15h-2.16v-2.15zm-17.24 0v2.15H4.8v-2.15zm0 2.16v2.14H4.81V23.7zm17.24-.01v2.15h-2.15v-2.15zm2.14 2.16V28H24.2v-2.15zm-2.15-.01V28h-2.15v-2.15zm-2.16.01V28h-2.15v-2.15zm-2.15-.01V28h-2.15v-2.15zm-2.15.01V28h-2.15v-2.15zm-2.16 0V28h-2.15v-2.15zm-2.15-.01V28h-2.15v-2.15zm-2.15.01V28H9.12v-2.15zm-2.16 0V28H6.96v-2.15zm-2.15-.01V28H4.8v-2.15zm-2.16.01V28H2.65v-2.15zM28.5 28h-2.15v-2.15h2.15zm0-2.16h-2.15V23.7h2.15zm0-2.14h-2.15v-2.16h2.15zm0-2.16h-2.15v-2.15h2.15zm0-2.15h-2.15v-2.15h2.15zm0-2.16h-2.15v-2.15h2.15zm0-2.16h-2.15v-2.15h2.15z"/>
<path fill="currentColor" d="M28.5 12.93h-2.15v-2.15h2.15zm0-2.16h-2.15V8.62h2.15zm0-2.16h-2.15V6.46h2.15zm0-2.15h-2.15V4.31h2.15z"/>
</symbol>
</svg>
<svg width="21" height="21" viewBox="0 0 21 21" fill="none" xmlns="http://www.w3.org/2000/svg">
<rect width="1.61538" height="1.61538" fill="black"/>
<rect y="1.61523" width="1.61538" height="1.61538" fill="black"/>
<rect y="3.23096" width="1.61538" height="1.61538" fill="black"/>
<rect y="4.84619" width="1.61538" height="1.61538" fill="black"/>
<rect y="6.46143" width="1.61538" height="1.61538" fill="black"/>
<rect y="8.07715" width="1.61538" height="1.61538" fill="black"/>
<rect y="9.69238" width="1.61538" height="1.61538" fill="black"/>
<rect y="11.3076" width="1.61538" height="1.61538" fill="black"/>
<rect y="12.9229" width="1.61538" height="1.61538" fill="black"/>
<rect y="14.5386" width="1.61538" height="1.61538" fill="black"/>
<rect y="16.1538" width="1.61538" height="1.61538" fill="black"/>
<rect y="17.769" width="1.61538" height="1.61538" fill="black"/>
<rect y="19.3848" width="1.61538" height="1.61538" fill="black"/>
<rect x="17.7693" width="1.61538" height="1.61538" transform="rotate(90 17.7693 0)" fill="black"/>
<rect x="16.1538" width="1.61538" height="1.61538" transform="rotate(90 16.1538 0)" fill="black"/>
<rect x="14.5385" width="1.61538" height="1.61538" transform="rotate(90 14.5385 0)" fill="black"/>
<rect x="12.9231" width="1.61538" height="1.61538" transform="rotate(90 12.9231 0)" fill="black"/>
<rect x="11.3077" width="1.61538" height="1.61538" transform="rotate(90 11.3077 0)" fill="black"/>
<rect x="9.69226" width="1.61538" height="1.61538" transform="rotate(90 9.69226 0)" fill="black"/>
<rect x="8.0769" width="1.61538" height="1.61538" transform="rotate(90 8.0769 0)" fill="black"/>
<rect x="6.46155" width="1.61538" height="1.61538" transform="rotate(90 6.46155 0)" fill="black"/>
<rect x="4.84619" width="1.61538" height="1.61538" transform="rotate(90 4.84619 0)" fill="black"/>
<rect x="3.23071" width="1.61538" height="1.61538" transform="rotate(90 3.23071 0)" fill="black"/>
<rect x="19.3846" y="1.61523" width="1.61538" height="1.61538" transform="rotate(90 19.3846 1.61523)" fill="black"/>
<rect x="4.84619" y="3.23096" width="1.61538" height="1.61538" transform="rotate(90 4.84619 3.23096)" fill="black"/>
<rect x="4.84619" y="1.61523" width="1.61538" height="1.61538" transform="rotate(90 4.84619 1.61523)" fill="black"/>
<rect x="4.84619" y="4.84619" width="1.61538" height="1.61538" transform="rotate(90 4.84619 4.84619)" fill="black"/>
<rect x="16.1538" y="3.23096" width="1.61538" height="1.61538" transform="rotate(90 16.1538 3.23096)" fill="black"/>
<rect x="16.1538" y="1.61523" width="1.61538" height="1.61538" transform="rotate(90 16.1538 1.61523)" fill="black"/>
<rect x="16.1538" y="4.84619" width="1.61538" height="1.61538" transform="rotate(90 16.1538 4.84619)" fill="black"/>
<rect x="12.9231" y="3.23096" width="1.61538" height="1.61538" transform="rotate(90 12.9231 3.23096)" fill="black"/>
<rect x="12.9231" y="1.61523" width="1.61538" height="1.61538" transform="rotate(90 12.9231 1.61523)" fill="black"/>
<rect x="12.9231" y="4.84619" width="1.61538" height="1.61538" transform="rotate(90 12.9231 4.84619)" fill="black"/>
<rect x="16.1538" y="6.46143" width="1.61538" height="1.61538" transform="rotate(90 16.1538 6.46143)" fill="black"/>
<rect x="14.5385" y="6.46143" width="1.61538" height="1.61538" transform="rotate(90 14.5385 6.46143)" fill="black"/>
<rect x="12.9231" y="6.46143" width="1.61538" height="1.61538" transform="rotate(90 12.9231 6.46143)" fill="black"/>
<rect x="11.3077" y="6.46143" width="1.61538" height="1.61538" transform="rotate(90 11.3077 6.46143)" fill="black"/>
<rect x="9.69226" y="6.46143" width="1.61538" height="1.61538" transform="rotate(90 9.69226 6.46143)" fill="black"/>
<rect x="8.0769" y="6.46143" width="1.61538" height="1.61538" transform="rotate(90 8.0769 6.46143)" fill="black"/>
<rect x="6.46155" y="6.46143" width="1.61538" height="1.61538" transform="rotate(90 6.46155 6.46143)" fill="black"/>
<rect x="4.84619" y="6.46143" width="1.61538" height="1.61538" transform="rotate(90 4.84619 6.46143)" fill="black"/>
<rect x="17.7693" y="11.3076" width="1.61538" height="1.61538" transform="rotate(90 17.7693 11.3076)" fill="black"/>
<rect x="16.1538" y="11.3076" width="1.61538" height="1.61538" transform="rotate(90 16.1538 11.3076)" fill="black"/>
<rect x="14.5385" y="11.3076" width="1.61538" height="1.61538" transform="rotate(90 14.5385 11.3076)" fill="black"/>
<rect x="12.9231" y="11.3076" width="1.61538" height="1.61538" transform="rotate(90 12.9231 11.3076)" fill="black"/>
<rect x="11.3077" y="11.3076" width="1.61538" height="1.61538" transform="rotate(90 11.3077 11.3076)" fill="black"/>
<rect x="9.69226" y="11.3076" width="1.61538" height="1.61538" transform="rotate(90 9.69226 11.3076)" fill="black"/>
<rect x="8.0769" y="11.3076" width="1.61538" height="1.61538" transform="rotate(90 8.0769 11.3076)" fill="black"/>
<rect x="6.46155" y="11.3076" width="1.61538" height="1.61538" transform="rotate(90 6.46155 11.3076)" fill="black"/>
<rect x="4.84619" y="11.3076" width="1.61538" height="1.61538" transform="rotate(90 4.84619 11.3076)" fill="black"/>
<rect x="17.7693" y="12.9229" width="1.61538" height="1.61538" transform="rotate(90 17.7693 12.9229)" fill="black"/>
<rect x="4.84619" y="12.9229" width="1.61538" height="1.61538" transform="rotate(90 4.84619 12.9229)" fill="black"/>
<rect x="17.7693" y="14.5386" width="1.61538" height="1.61538" transform="rotate(90 17.7693 14.5386)" fill="black"/>
<rect x="4.84619" y="14.5386" width="1.61538" height="1.61538" transform="rotate(90 4.84619 14.5386)" fill="black"/>
<rect x="17.7693" y="16.1538" width="1.61538" height="1.61538" transform="rotate(90 17.7693 16.1538)" fill="black"/>
<rect x="4.84619" y="16.1538" width="1.61538" height="1.61538" transform="rotate(90 4.84619 16.1538)" fill="black"/>
<rect x="4.84619" y="17.769" width="1.61538" height="1.61538" transform="rotate(90 4.84619 17.769)" fill="black"/>
<rect x="17.7693" y="17.769" width="1.61538" height="1.61538" transform="rotate(90 17.7693 17.769)" fill="black"/>
<rect x="19.3846" y="19.3848" width="1.61538" height="1.61538" transform="rotate(90 19.3846 19.3848)" fill="black"/>
<rect x="17.7693" y="19.3848" width="1.61538" height="1.61538" transform="rotate(90 17.7693 19.3848)" fill="black"/>
<rect x="16.1538" y="19.3848" width="1.61538" height="1.61538" transform="rotate(90 16.1538 19.3848)" fill="black"/>
<rect x="14.5385" y="19.3848" width="1.61538" height="1.61538" transform="rotate(90 14.5385 19.3848)" fill="black"/>
<rect x="12.9231" y="19.3848" width="1.61538" height="1.61538" transform="rotate(90 12.9231 19.3848)" fill="black"/>
<rect x="11.3077" y="19.3848" width="1.61538" height="1.61538" transform="rotate(90 11.3077 19.3848)" fill="black"/>
<rect x="9.69226" y="19.3848" width="1.61538" height="1.61538" transform="rotate(90 9.69226 19.3848)" fill="black"/>
<rect x="8.0769" y="19.3848" width="1.61538" height="1.61538" transform="rotate(90 8.0769 19.3848)" fill="black"/>
<rect x="6.46155" y="19.3848" width="1.61538" height="1.61538" transform="rotate(90 6.46155 19.3848)" fill="black"/>
<rect x="4.84619" y="19.3848" width="1.61538" height="1.61538" transform="rotate(90 4.84619 19.3848)" fill="black"/>
<rect x="3.23071" y="19.3848" width="1.61538" height="1.61538" transform="rotate(90 3.23071 19.3848)" fill="black"/>
<rect x="21" y="21" width="1.61538" height="1.61538" transform="rotate(-180 21 21)" fill="black"/>
<rect x="21" y="19.3848" width="1.61538" height="1.61538" transform="rotate(-180 21 19.3848)" fill="black"/>
<rect x="21" y="17.769" width="1.61538" height="1.61538" transform="rotate(-180 21 17.769)" fill="black"/>
<rect x="21" y="16.1538" width="1.61538" height="1.61538" transform="rotate(-180 21 16.1538)" fill="black"/>
<rect x="21" y="14.5386" width="1.61538" height="1.61538" transform="rotate(-180 21 14.5386)" fill="black"/>
<rect x="21" y="12.9229" width="1.61538" height="1.61538" transform="rotate(-180 21 12.9229)" fill="black"/>
<rect x="21" y="11.3076" width="1.61538" height="1.61538" transform="rotate(-180 21 11.3076)" fill="black"/>
<rect x="21" y="9.69238" width="1.61538" height="1.61538" transform="rotate(-180 21 9.69238)" fill="black"/>
<rect x="21" y="8.07715" width="1.61538" height="1.61538" transform="rotate(-180 21 8.07715)" fill="black"/>
<rect x="21" y="6.46143" width="1.61538" height="1.61538" transform="rotate(-180 21 6.46143)" fill="black"/>
<rect x="21" y="4.84619" width="1.61538" height="1.61538" transform="rotate(-180 21 4.84619)" fill="black"/>
</svg>
